:SAMPLES-PER-SECOND 30
:FRAME-RANGE 1-1700
:FULLY-SPECIFIED
:DEGREES
638
root  29.0458 39.1297 -5.12282 0.266525 51.1389 8.44016
RightUpLeg  -4.99842 -5.60782 2.99203
RightLeg  27.7682 -6.61043 -3.99601
RightFoot  -13.2117 -0.0594299 1.8418
RightToes  -1.16417e-010 0 -3.6325e-017
Spine  19.7139 -1.24862 -2.52571
Spine1  -1.42706 -4.7836 3.63284
HEad  -3.82974 -15.0227 -0.0168145
LeftShoulder1  3.11763 -5.4409 -28.8132
LeftArm  81.6227 -34.2934 -90.6153
LeftForeArm  2.25163 -16.2179 -12.6725
LeftHand  -0.00882365 4.37151 -1.90897
RightShoulder  14.4596 25.0586 43.9924
RightArm  41.8649 7.50522 21.7325
RightForeArm  12.6948 24.8429 4.65297
RightHand  1.78632 8.2221 14.7175
LeftUpLeg  -97.9996 23.9246 -76.5519
LeftLeg  124.501 -5.13638 6.42608
LeftFoot  11.7617 1.32871 -6.84889
LeftToes  1.03528e-008 1.55373e-010 -2.26046e-010
639
root  28.5275 37.6573 -4.53806 -3.29147 50.4048 5.45004
RightUpLeg  -6.00214 -1.21523 8.60499
RightLeg  33.7869 -12.3534 -9.00604
RightFoot  -21.346 -0.415636 -3.09797
RightToes  -1.16417e-010 0 -3.6325e-017
Spine  20.164 -1.22686 -2.2411
Spine1  -0.96536 -5.27882 4.24411
HEad  -7.68886 -18.3085 2.00774
LeftShoulder1  3.13492 -5.37639 -29.2705
LeftArm  81.9766 -34.9231 -90.314
LeftForeArm  1.70713 -16.3053 -12.6171
LeftHand  -0.0147604 4.59953 -1.62534
RightShoulder  14.3491 24.625 44.3609
RightArm  40.757 8.03732 21.3093
RightForeArm  12.8166 25.0188 4.68491
RightHand  1.7447 8.10169 14.5028
LeftUpLeg  -98.019 26.1892 -75.8474
LeftLeg  125.445 -4.95577 5.97317
LeftFoot  11.3414 0.711225 -3.89206
LeftToes  1.03528e-008 1.55373e-010 -2.26046e-010
640
root  27.9224 36.2915 -4.11692 -5.81013 49.1679 3.54761
RightUpLeg  -9.87893 3.65672 13.1226
RightLeg  44.2739 -14.6651 -15.0875
RightFoot  -24.2833 -0.569801 -3.57267
RightToes  -1.16417e-010 0 -3.6325e-017
Spine  20.3931 -1.47253 -2.19274
Spine1  0.0405155 -5.88256 3.48812
HEad  -13.3102 -21.4054 5.24725
LeftShoulder1  3.23983 -5.33729 -30.6345
LeftArm  83.4157 -35.9028 -89.0833
LeftForeArm  -0.554556 -16.7811 -12.271
LeftHand  -0.0209403 4.8042 -1.2682
RightShoulder  14.7089 24.7136 45.3783
RightArm  38.8891 9.07156 20.4654
RightForeArm  13.8884 24.9302 4.60829
RightHand  1.72072 7.86924 14.5609
LeftUpLeg  -97.9162 28.715 -76.7225
LeftLeg  125.471 -4.8413 5.82124
LeftFoot  9.49745 0.0935611 -0.824369
LeftToes  1.03528e-008 1.55373e-010 -2.26046e-010
641
root  27.4581 35.7056 -3.77648 -7.04102 49.6366 2.83434
RightUpLeg  -10.8374 1.16861 14.6368
RightLeg  46.8154 -13.8275 -15.5615
RightFoot  -25.9642 -0.944498 -5.98385
RightToes  -1.16417e-010 0 -3.6325e-017
Spine  19.7601 -2.67377 -3.18023
Spine1  1.56478 -7.37337 4.68662
HEad  -15.2438 -23.6835 6.16234
LeftShoulder1  3.40495 -5.43854 -32.0767
LeftArm  76.0177 -36.2851 -87.9359
LeftForeArm  5.93381 -14.9489 -13.6293
LeftHand  -0.0280179 5.07368 -0.682607
RightShoulder  14.2875 24.227 44.8389
RightArm  37.7501 8.86908 21.1343
RightForeArm  15.8902 25.2278 4.566
RightHand  1.65875 7.68246 14.2372
LeftUpLeg  -94.8855 31.8179 -77.1939
LeftLeg  125.414 -3.34577 3.896
LeftFoot  7.71187 -0.238996 1.14419
LeftToes  1.03528e-008 1.55373e-010 -2.26046e-010
642
root  27.0226 35.7439 -3.5523 -7.43309 49.6865 2.58928
RightUpLeg  -10.4891 0.114732 15.3169
RightLeg  45.5253 -13.6103 -14.6918
RightFoot  -25.2952 -1.07379 -7.3629
RightToes  -1.16417e-010 0 -3.6325e-017
Spine  19.5559 -3.56883 -3.42427
Spine1  1.26765 -7.90847 5.23585
HEad  -14.8729 -25.9205 6.58621
LeftShoulder1  3.46224 -5.49841 -32.4605
LeftArm  67.8077 -35.453 -87.6173
LeftForeArm  15.1271 -12.7309 -14.9081
LeftHand  -0.0370146 5.47678 -0.492919
RightShoulder  13.5509 22.6564 45.1312
RightArm  37.4213 6.96015 20.9661
RightForeArm  17.7463 26.6858 4.78743
RightHand  1.59959 7.26201 14.1964
LeftUpLeg  -92.6735 33.3221 -77.7461
LeftLeg  125.795 -3.50733 4.04539
LeftFoot  10.9164 -0.176635 0.558381
LeftToes  1.03528e-008 1.55373e-010 -2.26046e-010
643
root  26.4477 36.5405 -3.42127 -4.51703 46.5308 4.92303
RightUpLeg  -9.30156 2.83522 14.2747
RightLeg  39.7507 -13.7597 -12.2351
RightFoot  -21.3125 -0.92841 -8.97025
RightToes  -1.16417e-010 0 -3.6325e-017
Spine  18.6817 -3.07626 -5.85629
Spine1  0.620794 -7.24964 6.45285
HEad  -13.7125 -26.3737 7.16784
LeftShoulder1  3.43535 -5.53627 -32.0016
LeftArm  77.1865 -33.2967 -86.1556
LeftForeArm  3.86152 -15.8482 -12.9369
LeftHand  -0.0258905 4.74507 -2.07919
RightShoulder  13.1736 21.6376 45.6984
RightArm  38.0439 5.4405 21.3147
RightForeArm  17.8184 27.6641 5.00378
RightHand  1.60641 6.94266 14.6412
LeftUpLeg  -94.6084 33.0048 -80.7368
LeftLeg  125.806 -5.67219 6.79946
LeftFoot  15.0084 0.132643 -0.961608
LeftToes  1.03528e-008 1.55373e-010 -2.26046e-010
644
root  25.8309 37.8247 -3.26416 -0.919922 44.1685 7.74026
RightUpLeg  -6.84265 5.91789 12.286
RightLeg  30.0018 -14.1373 -8.89494
RightFoot  -14.4122 -0.357038 -9.6683
RightToes  -1.16417e-010 0 -3.6325e-017
Spine  17.9226 -3.48942 -9.44455
Spine1  -0.210392 -7.71847 8.19709
HEad  -12.0397 -25.9034 8.10815
LeftShoulder1  3.38082 -5.67902 -30.8098
LeftArm  82.3744 -31.7491 -85.3269
LeftForeArm  -1.50358 -17.4765 -11.6087
LeftHand  -0.0272785 5.04694 -3.0569
RightShoulder  12.9396 20.9182 46.2434
RightArm  39.2666 4.5649 22.7475
RightForeArm  18.6177 27.4063 4.90158
RightHand  1.556 6.93772 14.1817
LeftUpLeg  -94.4833 30.7062 -82.3681
LeftLeg  125.159 -5.59179 6.85629
LeftFoot  16.6013 0.655651 -3.04741
LeftToes  1.03528e-008 1.55373e-010 -2.26046e-010
645
root  25.2433 39.3062 -3.11917 2.28862 42.4869 9.44676
RightUpLeg  -4.91043 6.57606 10.107
RightLeg  19.2074 -10.7436 -4.40165
RightFoot  -3.77128 0.556211 -8.76695
RightToes  -1.16417e-010 0 -3.6325e-017
Spine  18.0926 -4.22952 -12.3652
Spine1  -2.34556 -8.68712 11.2805
HEad  -10.653 -25.4749 8.14795
LeftShoulder1  3.44128 -5.87347 -30.6908
LeftArm  75.424 -30.9367 -85.2442
LeftForeArm  3.90473 -15.7228 -13.0494
LeftHand  -0.0331849 5.40296 -3.15171
RightShoulder  12.2759 19.7586 46.0738
RightArm  39.8659 4.02272 23.6985
RightForeArm  19.104 26.9942 4.78245
RightHand  1.50582 7.30631 13.3029
LeftUpLeg  -92.7749 26.7811 -82.1439
LeftLeg  123.557 -4.74626 6.11232
LeftFoot  17.4995 1.54564 -6.42828
LeftToes  1.03528e-008 1.55373e-010 -2.26046e-010
646
root  24.72 40.6128 -3.22856 3.20747 39.5763 8.86372
RightUpLeg  -3.94455 4.15855 8.16959
RightLeg  11.4425 4.44304 0.469919
RightFoot  9.11846 0.685779 -3.44945
RightToes  -1.16417e-010 0 -3.6325e-017
Spine  19.0444 -4.64811 -12.1451
Spine1  -2.98403 -8.9487 13.5916
HEad  -12.811 -23.9326 8.49206
LeftShoulder1  3.44577 -6.04936 -30.0544
LeftArm  78.7268 -31.4236 -87.0595
LeftForeArm  1.22946 -16.4395 -12.5126
LeftHand  -0.0294019 5.34586 -3.2123
RightShoulder  12.0731 19.5868 45.6371
RightArm  38.7349 5.09929 23.2974
RightForeArm  19.3797 26.9888 4.76622
RightHand  1.52561 7.52953 13.2378
LeftUpLeg  -91.8929 22.9972 -81.3191
LeftLeg  120.954 -5.78807 8.32573
LeftFoot  18.5757 2.30396 -9.04184
LeftToes  1.03528e-008 1.55373e-010 -2.26046e-010
647
root  24.2933 41.0371 -3.38388 3.49831 35.315 8.29269
RightUpLeg  -4.60115 2.10922 4.37438
RightLeg  9.68611 13.1963 2.59462
RightFoot  8.72471 -5.2711 29.528
RightToes  -1.16417e-010 0 -3.6325e-017
Spine  19.4588 -4.40183 -11.7809
Spine1  -2.22949 -8.63052 15.4727
HEad  -15.9175 -20.766 9.08753
LeftShoulder1  3.4256 -6.34098 -28.7571
LeftArm  85.5884 -32.5244 -89.5799
LeftForeArm  -6.94063 -18.0478 -11.3017
LeftHand  -0.0237691 5.11395 -3.03944
RightShoulder  12.5196 21.2881 43.9691
RightArm  36.9079 6.69505 22.6782
RightForeArm  19.0068 26.6664 4.71465
RightHand  1.59737 7.93881 13.4277
LeftUpLeg  -92.6634 19.1493 -82.6819
LeftLeg  118.025 -8.57063 13.9253
LeftFoot  18.6916 2.46026 -9.58788
LeftToes  1.03528e-008 1.55373e-010 -2.26046e-010
648
root  23.8273 41.5712 -3.33948 3.81401 30.8717 7.60118
RightUpLeg  -7.66343 -0.480405 1.57329
RightLeg  13.9008 12.3623 3.35757
RightFoot  6.98618 -4.84747 29.7252
RightToes  -1.16417e-010 0 -3.6325e-017
Spine  20.3006 -4.38734 -10.1121
Spine1  -1.83828 -8.39596 15.6756
HEad  -16.2675 -18.1795 9.19019
LeftShoulder1  3.33778 -6.32657 -27.8925
LeftArm  82.9555 -34.3171 -91.4912
LeftForeArm  -5.03278 -16.9643 -12.3336
LeftHand  -0.0269234 5.20916 -2.8503
RightShoulder  12.9913 23.0966 42.388
RightArm  36.082 8.15536 22.7677
RightForeArm  19.1692 26.7466 4.72367
RightHand  1.66835 8.12887 13.8295
LeftUpLeg  -93.7727 18.0692 -82.1828
LeftLeg  115.88 -8.71118 15.4142
LeftFoot  18.3467 2.56285 -10.0805
LeftToes  1.03528e-008 1.55373e-010 -2.26046e-010
649
root  23.3383 41.7624 -3.2138 3.9128 25.5621 6.98637
RightUpLeg  -10.5606 -1.10369 -1.15838
RightLeg  16.6197 -0.221914 -0.280235
RightFoot  6.49496 -3.34225 21.359
RightToes  -1.16417e-010 0 -3.6325e-017
Spine  21.5098 -4.06044 -7.53417
Spine1  -1.61757 -7.63564 14.2701
HEad  -16.1922 -16.7895 8.52981
LeftShoulder1  3.27842 -6.27999 -27.4337
LeftArm  75.8408 -36.2825 -92.351
LeftForeArm  1.0001 -14.646 -14.1258
LeftHand  -0.0312178 5.35984 -2.44568
RightShoulder  13.6243 24.9686 41.4127
RightArm  35.3423 9.21561 22.8663
RightForeArm  20.0459 26.9395 4.719
RightHand  1.59957 7.92062 13.4658
LeftUpLeg  -96.0469 18.6046 -81.3304
LeftLeg  114.917 -7.46595 13.7671
LeftFoot  18.4753 2.80113 -10.9274
LeftToes  1.03528e-008 1.55373e-010 -2.26046e-010
